<mxfile host="app.diagrams.net" agent="Mozilla/5.0 (Windows NT 10.0; Win64; x64) AppleWebKit/537.36 (KHTML, like Gecko) Chrome/138.0.0.0 Safari/537.36 Edg/138.0.0.0" version="28.0.7">
  <diagram name="Page-1" id="RSDUTmjx3TpfhgwKDqh5">
    <mxGraphModel dx="2585" dy="1545" grid="1" gridSize="10" guides="1" tooltips="1" connect="1" arrows="1" fold="1" page="1" pageScale="1" pageWidth="1100" pageHeight="850" math="0" shadow="0">
      <root>
        <mxCell id="0" />
        <mxCell id="1" parent="0" />
        <mxCell id="cFiekwsGZU19lGgXHQVi-1" value="" style="endArrow=none;html=1;rounded=0;fillColor=#60a917;strokeColor=#2D7600;" edge="1" parent="1">
          <mxGeometry width="50" height="50" relative="1" as="geometry">
            <mxPoint x="200" y="441" as="sourcePoint" />
            <mxPoint x="840" y="441" as="targetPoint" />
          </mxGeometry>
        </mxCell>
        <mxCell id="cFiekwsGZU19lGgXHQVi-2" value="Dev Branch1" style="edgeLabel;html=1;align=center;verticalAlign=middle;resizable=0;points=[];" vertex="1" connectable="0" parent="cFiekwsGZU19lGgXHQVi-1">
          <mxGeometry x="0.9487" y="3" relative="1" as="geometry">
            <mxPoint as="offset" />
          </mxGeometry>
        </mxCell>
        <mxCell id="cFiekwsGZU19lGgXHQVi-3" value="" style="endArrow=none;html=1;rounded=0;fillColor=#e51400;strokeColor=#B20000;" edge="1" parent="1">
          <mxGeometry width="50" height="50" relative="1" as="geometry">
            <mxPoint x="200" y="516" as="sourcePoint" />
            <mxPoint x="840" y="516" as="targetPoint" />
          </mxGeometry>
        </mxCell>
        <mxCell id="cFiekwsGZU19lGgXHQVi-4" value="Master" style="edgeLabel;html=1;align=center;verticalAlign=middle;resizable=0;points=[];" vertex="1" connectable="0" parent="cFiekwsGZU19lGgXHQVi-3">
          <mxGeometry x="0.8468" y="2" relative="1" as="geometry">
            <mxPoint as="offset" />
          </mxGeometry>
        </mxCell>
        <mxCell id="cFiekwsGZU19lGgXHQVi-5" style="edgeStyle=orthogonalEdgeStyle;rounded=0;orthogonalLoop=1;jettySize=auto;html=1;" edge="1" parent="1">
          <mxGeometry relative="1" as="geometry">
            <mxPoint x="360" y="441" as="targetPoint" />
            <mxPoint x="360" y="371" as="sourcePoint" />
          </mxGeometry>
        </mxCell>
        <mxCell id="cFiekwsGZU19lGgXHQVi-6" value="Story" style="edgeLabel;html=1;align=center;verticalAlign=middle;resizable=0;points=[];" vertex="1" connectable="0" parent="cFiekwsGZU19lGgXHQVi-5">
          <mxGeometry x="0.8331" y="-2" relative="1" as="geometry">
            <mxPoint y="-34" as="offset" />
          </mxGeometry>
        </mxCell>
        <mxCell id="cFiekwsGZU19lGgXHQVi-7" style="edgeStyle=orthogonalEdgeStyle;rounded=0;orthogonalLoop=1;jettySize=auto;html=1;" edge="1" parent="1">
          <mxGeometry relative="1" as="geometry">
            <mxPoint x="410" y="441" as="targetPoint" />
            <mxPoint x="410" y="401" as="sourcePoint" />
          </mxGeometry>
        </mxCell>
        <mxCell id="cFiekwsGZU19lGgXHQVi-8" value="Bugfix1" style="edgeLabel;html=1;align=center;verticalAlign=middle;resizable=0;points=[];" vertex="1" connectable="0" parent="cFiekwsGZU19lGgXHQVi-7">
          <mxGeometry x="0.7065" relative="1" as="geometry">
            <mxPoint y="-14" as="offset" />
          </mxGeometry>
        </mxCell>
        <mxCell id="cFiekwsGZU19lGgXHQVi-9" style="edgeStyle=orthogonalEdgeStyle;rounded=0;orthogonalLoop=1;jettySize=auto;html=1;" edge="1" parent="1">
          <mxGeometry relative="1" as="geometry">
            <mxPoint x="530" y="441" as="targetPoint" />
            <mxPoint x="530" y="401" as="sourcePoint" />
          </mxGeometry>
        </mxCell>
        <mxCell id="cFiekwsGZU19lGgXHQVi-10" value="Bugfix3" style="edgeLabel;html=1;align=center;verticalAlign=middle;resizable=0;points=[];" vertex="1" connectable="0" parent="cFiekwsGZU19lGgXHQVi-9">
          <mxGeometry x="0.5011" y="-2" relative="1" as="geometry">
            <mxPoint x="2" y="-10" as="offset" />
          </mxGeometry>
        </mxCell>
        <mxCell id="cFiekwsGZU19lGgXHQVi-11" value="" style="endArrow=classic;html=1;rounded=0;" edge="1" parent="1">
          <mxGeometry width="50" height="50" relative="1" as="geometry">
            <mxPoint x="140" y="28" as="sourcePoint" />
            <mxPoint x="930" y="28" as="targetPoint" />
          </mxGeometry>
        </mxCell>
        <mxCell id="cFiekwsGZU19lGgXHQVi-12" value="Time" style="edgeLabel;html=1;align=center;verticalAlign=middle;resizable=0;points=[];" vertex="1" connectable="0" parent="cFiekwsGZU19lGgXHQVi-11">
          <mxGeometry x="0.877" y="3" relative="1" as="geometry">
            <mxPoint as="offset" />
          </mxGeometry>
        </mxCell>
        <mxCell id="cFiekwsGZU19lGgXHQVi-13" value="" style="endArrow=none;html=1;rounded=0;" edge="1" parent="1">
          <mxGeometry width="50" height="50" relative="1" as="geometry">
            <mxPoint x="330" y="372" as="sourcePoint" />
            <mxPoint x="830" y="368" as="targetPoint" />
          </mxGeometry>
        </mxCell>
        <mxCell id="cFiekwsGZU19lGgXHQVi-14" value="Feature1" style="edgeLabel;html=1;align=center;verticalAlign=middle;resizable=0;points=[];" vertex="1" connectable="0" parent="cFiekwsGZU19lGgXHQVi-13">
          <mxGeometry x="0.6556" y="1" relative="1" as="geometry">
            <mxPoint x="46" as="offset" />
          </mxGeometry>
        </mxCell>
        <mxCell id="cFiekwsGZU19lGgXHQVi-15" value="" style="endArrow=classic;html=1;rounded=0;" edge="1" parent="1">
          <mxGeometry width="50" height="50" relative="1" as="geometry">
            <mxPoint x="332" y="438" as="sourcePoint" />
            <mxPoint x="332" y="371" as="targetPoint" />
          </mxGeometry>
        </mxCell>
        <mxCell id="cFiekwsGZU19lGgXHQVi-16" value="Create" style="edgeLabel;html=1;align=center;verticalAlign=middle;resizable=0;points=[];" vertex="1" connectable="0" parent="cFiekwsGZU19lGgXHQVi-15">
          <mxGeometry x="-0.7429" y="1" relative="1" as="geometry">
            <mxPoint as="offset" />
          </mxGeometry>
        </mxCell>
        <mxCell id="cFiekwsGZU19lGgXHQVi-17" value="" style="endArrow=classic;html=1;rounded=0;" edge="1" parent="1">
          <mxGeometry width="50" height="50" relative="1" as="geometry">
            <mxPoint x="470" y="401" as="sourcePoint" />
            <mxPoint x="470" y="441" as="targetPoint" />
          </mxGeometry>
        </mxCell>
        <mxCell id="cFiekwsGZU19lGgXHQVi-18" value="Bugfix2" style="edgeLabel;html=1;align=center;verticalAlign=middle;resizable=0;points=[];" vertex="1" connectable="0" parent="cFiekwsGZU19lGgXHQVi-17">
          <mxGeometry x="-0.0476" y="-1" relative="1" as="geometry">
            <mxPoint as="offset" />
          </mxGeometry>
        </mxCell>
        <mxCell id="cFiekwsGZU19lGgXHQVi-19" value="" style="shape=link;html=1;rounded=0;" edge="1" parent="1">
          <mxGeometry width="100" relative="1" as="geometry">
            <mxPoint x="200" y="301" as="sourcePoint" />
            <mxPoint x="810" y="301" as="targetPoint" />
          </mxGeometry>
        </mxCell>
        <mxCell id="cFiekwsGZU19lGgXHQVi-20" value="QAEnvironment1" style="edgeLabel;html=1;align=center;verticalAlign=middle;resizable=0;points=[];" vertex="1" connectable="0" parent="cFiekwsGZU19lGgXHQVi-19">
          <mxGeometry x="0.9074" y="4" relative="1" as="geometry">
            <mxPoint x="1" as="offset" />
          </mxGeometry>
        </mxCell>
        <mxCell id="cFiekwsGZU19lGgXHQVi-21" value="" style="endArrow=classic;html=1;rounded=0;" edge="1" parent="1">
          <mxGeometry width="50" height="50" relative="1" as="geometry">
            <mxPoint x="310" y="441" as="sourcePoint" />
            <mxPoint x="310" y="301" as="targetPoint" />
          </mxGeometry>
        </mxCell>
        <mxCell id="cFiekwsGZU19lGgXHQVi-22" value="" style="endArrow=classic;html=1;rounded=0;" edge="1" parent="1">
          <mxGeometry width="50" height="50" relative="1" as="geometry">
            <mxPoint x="420" y="441" as="sourcePoint" />
            <mxPoint x="420" y="311" as="targetPoint" />
          </mxGeometry>
        </mxCell>
        <mxCell id="cFiekwsGZU19lGgXHQVi-23" value="" style="shape=link;html=1;rounded=0;" edge="1" parent="1">
          <mxGeometry width="100" relative="1" as="geometry">
            <mxPoint x="170" y="221" as="sourcePoint" />
            <mxPoint x="840" y="221" as="targetPoint" />
          </mxGeometry>
        </mxCell>
        <mxCell id="cFiekwsGZU19lGgXHQVi-24" value="UATEnvironment1" style="edgeLabel;html=1;align=center;verticalAlign=middle;resizable=0;points=[];" vertex="1" connectable="0" parent="cFiekwsGZU19lGgXHQVi-23">
          <mxGeometry x="0.9087" y="-1" relative="1" as="geometry">
            <mxPoint as="offset" />
          </mxGeometry>
        </mxCell>
        <mxCell id="cFiekwsGZU19lGgXHQVi-25" value="" style="endArrow=classic;html=1;rounded=0;" edge="1" parent="1">
          <mxGeometry width="50" height="50" relative="1" as="geometry">
            <mxPoint x="490" y="441" as="sourcePoint" />
            <mxPoint x="490" y="311" as="targetPoint" />
          </mxGeometry>
        </mxCell>
        <mxCell id="cFiekwsGZU19lGgXHQVi-26" value="" style="endArrow=classic;html=1;rounded=0;" edge="1" parent="1">
          <mxGeometry width="50" height="50" relative="1" as="geometry">
            <mxPoint x="608" y="441" as="sourcePoint" />
            <mxPoint x="610" y="518" as="targetPoint" />
          </mxGeometry>
        </mxCell>
        <mxCell id="cFiekwsGZU19lGgXHQVi-27" value="Release Merge" style="edgeLabel;html=1;align=center;verticalAlign=middle;resizable=0;points=[];" vertex="1" connectable="0" parent="cFiekwsGZU19lGgXHQVi-26">
          <mxGeometry x="-0.2267" relative="1" as="geometry">
            <mxPoint as="offset" />
          </mxGeometry>
        </mxCell>
        <mxCell id="cFiekwsGZU19lGgXHQVi-28" value="" style="endArrow=classic;html=1;rounded=0;" edge="1" parent="1">
          <mxGeometry width="50" height="50" relative="1" as="geometry">
            <mxPoint x="519" y="441" as="sourcePoint" />
            <mxPoint x="520" y="221" as="targetPoint" />
          </mxGeometry>
        </mxCell>
        <mxCell id="cFiekwsGZU19lGgXHQVi-29" value="" style="shape=link;html=1;rounded=0;" edge="1" parent="1">
          <mxGeometry width="100" relative="1" as="geometry">
            <mxPoint x="185" y="148" as="sourcePoint" />
            <mxPoint x="795" y="148" as="targetPoint" />
          </mxGeometry>
        </mxCell>
        <mxCell id="cFiekwsGZU19lGgXHQVi-30" value="ProdEnvironment" style="edgeLabel;html=1;align=center;verticalAlign=middle;resizable=0;points=[];" vertex="1" connectable="0" parent="cFiekwsGZU19lGgXHQVi-29">
          <mxGeometry x="0.9074" y="4" relative="1" as="geometry">
            <mxPoint x="1" as="offset" />
          </mxGeometry>
        </mxCell>
        <mxCell id="cFiekwsGZU19lGgXHQVi-31" value="" style="endArrow=classic;html=1;rounded=0;" edge="1" parent="1">
          <mxGeometry width="50" height="50" relative="1" as="geometry">
            <mxPoint x="700" y="518" as="sourcePoint" />
            <mxPoint x="700" y="148" as="targetPoint" />
          </mxGeometry>
        </mxCell>
        <mxCell id="cFiekwsGZU19lGgXHQVi-32" value="" style="endArrow=none;html=1;rounded=0;" edge="1" parent="1">
          <mxGeometry width="50" height="50" relative="1" as="geometry">
            <mxPoint x="390" y="401" as="sourcePoint" />
            <mxPoint x="790" y="401" as="targetPoint" />
          </mxGeometry>
        </mxCell>
        <mxCell id="cFiekwsGZU19lGgXHQVi-33" value="Bug of feature" style="edgeLabel;html=1;align=center;verticalAlign=middle;resizable=0;points=[];" vertex="1" connectable="0" parent="cFiekwsGZU19lGgXHQVi-32">
          <mxGeometry x="0.2476" y="2" relative="1" as="geometry">
            <mxPoint as="offset" />
          </mxGeometry>
        </mxCell>
        <mxCell id="cFiekwsGZU19lGgXHQVi-34" value="" style="endArrow=classic;html=1;rounded=0;" edge="1" parent="1">
          <mxGeometry width="50" height="50" relative="1" as="geometry">
            <mxPoint x="390" y="441" as="sourcePoint" />
            <mxPoint x="390" y="401" as="targetPoint" />
          </mxGeometry>
        </mxCell>
        <mxCell id="cFiekwsGZU19lGgXHQVi-35" value="" style="endArrow=classic;html=1;rounded=0;" edge="1" parent="1">
          <mxGeometry width="50" height="50" relative="1" as="geometry">
            <mxPoint x="556" y="440" as="sourcePoint" />
            <mxPoint x="556" y="221" as="targetPoint" />
          </mxGeometry>
        </mxCell>
        <mxCell id="cFiekwsGZU19lGgXHQVi-36" value="&lt;div&gt;Challenges:&lt;/div&gt;&lt;div&gt;Requires manage additional environments&lt;/div&gt;" style="text;html=1;align=left;verticalAlign=middle;resizable=0;points=[];autosize=1;strokeColor=none;fillColor=none;" vertex="1" parent="1">
          <mxGeometry x="460" y="38" width="250" height="40" as="geometry" />
        </mxCell>
        <mxCell id="cFiekwsGZU19lGgXHQVi-37" value="" style="endArrow=classic;html=1;rounded=0;" edge="1" parent="1">
          <mxGeometry width="50" height="50" relative="1" as="geometry">
            <mxPoint x="220" y="518" as="sourcePoint" />
            <mxPoint x="220" y="438" as="targetPoint" />
          </mxGeometry>
        </mxCell>
        <mxCell id="cFiekwsGZU19lGgXHQVi-38" value="Create" style="edgeLabel;html=1;align=center;verticalAlign=middle;resizable=0;points=[];" vertex="1" connectable="0" parent="cFiekwsGZU19lGgXHQVi-37">
          <mxGeometry x="0.0041" y="1" relative="1" as="geometry">
            <mxPoint as="offset" />
          </mxGeometry>
        </mxCell>
        <mxCell id="cFiekwsGZU19lGgXHQVi-39" value="" style="endArrow=none;html=1;rounded=0;fillColor=#60a917;strokeColor=#2D7600;" edge="1" parent="1">
          <mxGeometry width="50" height="50" relative="1" as="geometry">
            <mxPoint x="240" y="818" as="sourcePoint" />
            <mxPoint x="880" y="818" as="targetPoint" />
          </mxGeometry>
        </mxCell>
        <mxCell id="cFiekwsGZU19lGgXHQVi-40" value="Dev Branch2" style="edgeLabel;html=1;align=center;verticalAlign=middle;resizable=0;points=[];" vertex="1" connectable="0" parent="cFiekwsGZU19lGgXHQVi-39">
          <mxGeometry x="0.9487" y="3" relative="1" as="geometry">
            <mxPoint as="offset" />
          </mxGeometry>
        </mxCell>
        <mxCell id="cFiekwsGZU19lGgXHQVi-41" style="edgeStyle=orthogonalEdgeStyle;rounded=0;orthogonalLoop=1;jettySize=auto;html=1;" edge="1" parent="1">
          <mxGeometry relative="1" as="geometry">
            <mxPoint x="400" y="818" as="targetPoint" />
            <mxPoint x="400" y="748" as="sourcePoint" />
          </mxGeometry>
        </mxCell>
        <mxCell id="cFiekwsGZU19lGgXHQVi-42" value="Story" style="edgeLabel;html=1;align=center;verticalAlign=middle;resizable=0;points=[];" vertex="1" connectable="0" parent="cFiekwsGZU19lGgXHQVi-41">
          <mxGeometry x="0.8331" y="-2" relative="1" as="geometry">
            <mxPoint y="-34" as="offset" />
          </mxGeometry>
        </mxCell>
        <mxCell id="cFiekwsGZU19lGgXHQVi-43" style="edgeStyle=orthogonalEdgeStyle;rounded=0;orthogonalLoop=1;jettySize=auto;html=1;" edge="1" parent="1">
          <mxGeometry relative="1" as="geometry">
            <mxPoint x="450" y="818" as="targetPoint" />
            <mxPoint x="450" y="778" as="sourcePoint" />
          </mxGeometry>
        </mxCell>
        <mxCell id="cFiekwsGZU19lGgXHQVi-44" value="Bugfix1" style="edgeLabel;html=1;align=center;verticalAlign=middle;resizable=0;points=[];" vertex="1" connectable="0" parent="cFiekwsGZU19lGgXHQVi-43">
          <mxGeometry x="0.7065" relative="1" as="geometry">
            <mxPoint y="-14" as="offset" />
          </mxGeometry>
        </mxCell>
        <mxCell id="cFiekwsGZU19lGgXHQVi-45" style="edgeStyle=orthogonalEdgeStyle;rounded=0;orthogonalLoop=1;jettySize=auto;html=1;" edge="1" parent="1">
          <mxGeometry relative="1" as="geometry">
            <mxPoint x="570" y="818" as="targetPoint" />
            <mxPoint x="570" y="778" as="sourcePoint" />
          </mxGeometry>
        </mxCell>
        <mxCell id="cFiekwsGZU19lGgXHQVi-46" value="Bugfix3" style="edgeLabel;html=1;align=center;verticalAlign=middle;resizable=0;points=[];" vertex="1" connectable="0" parent="cFiekwsGZU19lGgXHQVi-45">
          <mxGeometry x="0.5011" y="-2" relative="1" as="geometry">
            <mxPoint x="2" y="-10" as="offset" />
          </mxGeometry>
        </mxCell>
        <mxCell id="cFiekwsGZU19lGgXHQVi-47" value="" style="endArrow=none;html=1;rounded=0;" edge="1" parent="1">
          <mxGeometry width="50" height="50" relative="1" as="geometry">
            <mxPoint x="370" y="749" as="sourcePoint" />
            <mxPoint x="870" y="745" as="targetPoint" />
          </mxGeometry>
        </mxCell>
        <mxCell id="cFiekwsGZU19lGgXHQVi-48" value="Feature2" style="edgeLabel;html=1;align=center;verticalAlign=middle;resizable=0;points=[];" vertex="1" connectable="0" parent="cFiekwsGZU19lGgXHQVi-47">
          <mxGeometry x="0.6556" y="1" relative="1" as="geometry">
            <mxPoint x="46" as="offset" />
          </mxGeometry>
        </mxCell>
        <mxCell id="cFiekwsGZU19lGgXHQVi-49" value="" style="endArrow=classic;html=1;rounded=0;" edge="1" parent="1">
          <mxGeometry width="50" height="50" relative="1" as="geometry">
            <mxPoint x="372" y="815" as="sourcePoint" />
            <mxPoint x="372" y="748" as="targetPoint" />
          </mxGeometry>
        </mxCell>
        <mxCell id="cFiekwsGZU19lGgXHQVi-50" value="Create" style="edgeLabel;html=1;align=center;verticalAlign=middle;resizable=0;points=[];" vertex="1" connectable="0" parent="cFiekwsGZU19lGgXHQVi-49">
          <mxGeometry x="-0.7429" y="1" relative="1" as="geometry">
            <mxPoint as="offset" />
          </mxGeometry>
        </mxCell>
        <mxCell id="cFiekwsGZU19lGgXHQVi-51" value="" style="endArrow=classic;html=1;rounded=0;" edge="1" parent="1">
          <mxGeometry width="50" height="50" relative="1" as="geometry">
            <mxPoint x="510" y="778" as="sourcePoint" />
            <mxPoint x="510" y="818" as="targetPoint" />
          </mxGeometry>
        </mxCell>
        <mxCell id="cFiekwsGZU19lGgXHQVi-52" value="Bugfix2" style="edgeLabel;html=1;align=center;verticalAlign=middle;resizable=0;points=[];" vertex="1" connectable="0" parent="cFiekwsGZU19lGgXHQVi-51">
          <mxGeometry x="-0.0476" y="-1" relative="1" as="geometry">
            <mxPoint as="offset" />
          </mxGeometry>
        </mxCell>
        <mxCell id="cFiekwsGZU19lGgXHQVi-53" value="" style="shape=link;html=1;rounded=0;" edge="1" parent="1">
          <mxGeometry width="100" relative="1" as="geometry">
            <mxPoint x="240" y="678" as="sourcePoint" />
            <mxPoint x="850" y="678" as="targetPoint" />
          </mxGeometry>
        </mxCell>
        <mxCell id="cFiekwsGZU19lGgXHQVi-54" value="QAEnvironment2" style="edgeLabel;html=1;align=center;verticalAlign=middle;resizable=0;points=[];" vertex="1" connectable="0" parent="cFiekwsGZU19lGgXHQVi-53">
          <mxGeometry x="0.9074" y="4" relative="1" as="geometry">
            <mxPoint x="1" as="offset" />
          </mxGeometry>
        </mxCell>
        <mxCell id="cFiekwsGZU19lGgXHQVi-55" value="" style="endArrow=classic;html=1;rounded=0;" edge="1" parent="1">
          <mxGeometry width="50" height="50" relative="1" as="geometry">
            <mxPoint x="350" y="818" as="sourcePoint" />
            <mxPoint x="350" y="678" as="targetPoint" />
          </mxGeometry>
        </mxCell>
        <mxCell id="cFiekwsGZU19lGgXHQVi-56" value="" style="endArrow=classic;html=1;rounded=0;" edge="1" parent="1">
          <mxGeometry width="50" height="50" relative="1" as="geometry">
            <mxPoint x="460" y="818" as="sourcePoint" />
            <mxPoint x="460" y="688" as="targetPoint" />
          </mxGeometry>
        </mxCell>
        <mxCell id="cFiekwsGZU19lGgXHQVi-57" value="" style="shape=link;html=1;rounded=0;" edge="1" parent="1">
          <mxGeometry width="100" relative="1" as="geometry">
            <mxPoint x="210" y="598" as="sourcePoint" />
            <mxPoint x="880" y="598" as="targetPoint" />
          </mxGeometry>
        </mxCell>
        <mxCell id="cFiekwsGZU19lGgXHQVi-58" value="UATEnvironment2" style="edgeLabel;html=1;align=center;verticalAlign=middle;resizable=0;points=[];" vertex="1" connectable="0" parent="cFiekwsGZU19lGgXHQVi-57">
          <mxGeometry x="0.9087" y="-1" relative="1" as="geometry">
            <mxPoint as="offset" />
          </mxGeometry>
        </mxCell>
        <mxCell id="cFiekwsGZU19lGgXHQVi-59" value="" style="endArrow=classic;html=1;rounded=0;" edge="1" parent="1">
          <mxGeometry width="50" height="50" relative="1" as="geometry">
            <mxPoint x="530" y="818" as="sourcePoint" />
            <mxPoint x="530" y="688" as="targetPoint" />
          </mxGeometry>
        </mxCell>
        <mxCell id="cFiekwsGZU19lGgXHQVi-60" value="" style="endArrow=classic;html=1;rounded=0;" edge="1" parent="1">
          <mxGeometry width="50" height="50" relative="1" as="geometry">
            <mxPoint x="648" y="818" as="sourcePoint" />
            <mxPoint x="650" y="518" as="targetPoint" />
          </mxGeometry>
        </mxCell>
        <mxCell id="cFiekwsGZU19lGgXHQVi-61" value="Release Merge" style="edgeLabel;html=1;align=center;verticalAlign=middle;resizable=0;points=[];" vertex="1" connectable="0" parent="cFiekwsGZU19lGgXHQVi-60">
          <mxGeometry x="-0.2267" relative="1" as="geometry">
            <mxPoint as="offset" />
          </mxGeometry>
        </mxCell>
        <mxCell id="cFiekwsGZU19lGgXHQVi-62" value="" style="endArrow=classic;html=1;rounded=0;" edge="1" parent="1">
          <mxGeometry width="50" height="50" relative="1" as="geometry">
            <mxPoint x="559" y="818" as="sourcePoint" />
            <mxPoint x="560" y="598" as="targetPoint" />
          </mxGeometry>
        </mxCell>
        <mxCell id="cFiekwsGZU19lGgXHQVi-63" value="" style="endArrow=none;html=1;rounded=0;" edge="1" parent="1">
          <mxGeometry width="50" height="50" relative="1" as="geometry">
            <mxPoint x="430" y="778" as="sourcePoint" />
            <mxPoint x="830" y="778" as="targetPoint" />
          </mxGeometry>
        </mxCell>
        <mxCell id="cFiekwsGZU19lGgXHQVi-64" value="Bug of feature" style="edgeLabel;html=1;align=center;verticalAlign=middle;resizable=0;points=[];" vertex="1" connectable="0" parent="cFiekwsGZU19lGgXHQVi-63">
          <mxGeometry x="0.2476" y="2" relative="1" as="geometry">
            <mxPoint as="offset" />
          </mxGeometry>
        </mxCell>
        <mxCell id="cFiekwsGZU19lGgXHQVi-65" value="" style="endArrow=classic;html=1;rounded=0;" edge="1" parent="1">
          <mxGeometry width="50" height="50" relative="1" as="geometry">
            <mxPoint x="430" y="818" as="sourcePoint" />
            <mxPoint x="430" y="778" as="targetPoint" />
          </mxGeometry>
        </mxCell>
        <mxCell id="cFiekwsGZU19lGgXHQVi-66" value="" style="endArrow=classic;html=1;rounded=0;" edge="1" parent="1">
          <mxGeometry width="50" height="50" relative="1" as="geometry">
            <mxPoint x="596" y="817" as="sourcePoint" />
            <mxPoint x="596" y="598" as="targetPoint" />
          </mxGeometry>
        </mxCell>
        <mxCell id="cFiekwsGZU19lGgXHQVi-67" value="" style="endArrow=classic;html=1;rounded=0;" edge="1" parent="1">
          <mxGeometry width="50" height="50" relative="1" as="geometry">
            <mxPoint x="250" y="518" as="sourcePoint" />
            <mxPoint x="260" y="815" as="targetPoint" />
          </mxGeometry>
        </mxCell>
        <mxCell id="cFiekwsGZU19lGgXHQVi-68" value="Create" style="edgeLabel;html=1;align=center;verticalAlign=middle;resizable=0;points=[];" vertex="1" connectable="0" parent="cFiekwsGZU19lGgXHQVi-67">
          <mxGeometry x="0.0041" y="1" relative="1" as="geometry">
            <mxPoint as="offset" />
          </mxGeometry>
        </mxCell>
      </root>
    </mxGraphModel>
  </diagram>
</mxfile>
